<?xml version="1.0" encoding="UTF-8" standalone="no"?><!DOCTYPE svg PUBLIC "-//W3C//DTD SVG 1.1//EN" "http://www.w3.org/Graphics/SVG/1.1/DTD/svg11.dtd"><svg width="100%" height="100%" viewBox="0 0 1182 1110" version="1.1" xmlns="http://www.w3.org/2000/svg" xmlns:xlink="http://www.w3.org/1999/xlink" xml:space="preserve" xmlns:serif="http://www.serif.com/" style="fill-rule:evenodd;clip-rule:evenodd;stroke-linejoin:round;stroke-miterlimit:2;"><path d="M93.225,6.25l-77.366,352.399c0,0 -17.418,69.889 7.291,94.272c24.71,24.384 81.767,14.055 81.767,14.055l360.713,-68.306l18.551,-121.836c0,0 -253.523,33.37 -306.411,39.626c-3.679,0.435 -7.68,2.29 -10.917,-2.085c-5.616,-7.592 62.705,-308.126 62.705,-308.126l-136.333,0Z" style="fill:#fff;"/><path d="M536.69,271.753c3.535,-41.734 30.664,-167.612 30.664,-167.612c0,0 8.991,-40.852 31.247,-64.36c22.257,-23.509 52.248,-33.531 52.248,-33.531l185.29,0c0,0 25.355,0.595 39.587,16.649c10.372,11.699 13.018,30.771 13.58,39.681c1.055,16.735 -26.332,189.889 -26.332,189.889c0,0 -8.533,35.182 -29.519,56.682c-20.987,21.5 -49.561,28.391 -49.561,28.391l-181.143,34.671c0,0 -40.238,9.29 -56.609,-17.67c-16.371,-26.959 -11.797,-55.114 -9.452,-82.791Zm107.937,-16.45c22.472,-1.011 94.628,-7.323 120.801,-14.678c14.987,-4.212 30.413,-15.02 36.242,-29.454c8.389,-20.774 12.943,-77.836 14.091,-95.189c0.252,-3.816 -3.38,-8.908 -7.204,-8.928c-23.468,-0.122 -106.723,2.097 -133.602,8.196c-12.889,2.925 -23.444,15.876 -27.67,28.399c-7.393,21.907 -16.245,84.436 -16.688,103.045c-0.131,5.485 8.548,8.856 14.03,8.609Z" style="fill:#fff;"/><path d="M893.267,314.554l43.703,-308.304l59.546,0l-11.39,98.969l25.085,-0.865l66.029,-98.104l67.51,0l-88.601,128.146l54.25,139.251l-60.59,13.671l-40.348,-100.174l-37.103,2.86l-16.682,113.788l-61.408,10.761Z" style="fill:#fff;"/><path d="M105.09,1107.656l44.074,0.91l28.724,-270.182l-83.353,8.487l-7.351,79.042l18.12,-0.497l-9.149,88.442c0,0 -4.895,18.343 -18.343,18.343c-13.447,0 -9.442,-24.122 -9.442,-24.122l25.744,-242.637c0,0 0.46,-20.209 12.898,-20.209c12.438,0 11.171,12.583 11.171,12.583l-3.744,57.828l64.624,-7.125l6.292,-92.711c0,0 -2.645,-70.45 -75.14,-54.113c-72.495,16.337 -77.223,94.132 -77.223,94.132l-29.868,292.079c0,0 -4.181,63.353 41.997,67.72c46.178,4.367 52.255,-44.392 52.255,-44.392l6.796,0l0.916,36.424Z" style="fill:#fff;"/><path d="M216.003,647.362l73.387,-13.995l-54.7,473.977l-71.677,0.273l52.99,-460.255Z" style="fill:#fff;"/><path d="M304.299,633.367l175.274,-33.482l-11.778,104.491l-48.741,7.333l-47.93,395.908l-77.484,0l43.272,-381.602l-41.556,5.253l8.942,-97.901Z" style="fill:#fff;"/><path d="M610.134,1107.617l-176.046,0l64.053,-507.732l180.38,-38.948l-14.043,117.111l-91.041,13.364l-9.902,90.238l67.96,-6.115l-11.911,112.034l-71.241,7.037l-12.311,105.601l88.452,-2.023l-14.351,109.432Z" style="fill:#fff;"/><path d="M690.495,560.938l104.236,-19.795l-19.67,337.454l72.88,-347.114l109.422,-20.684l-19.09,366.528l77.011,-376.771l131.591,-25.555l-165.517,632.617l-132.405,0l13.892,-312.304l-62.57,312.304l-121.753,0l11.974,-546.679Z" style="fill:#fff;"/><path d="M544.22,473.935c-3.142,-16.006 -18.688,-26.449 -34.694,-23.307l-474.307,93.112c-16.006,3.142 -26.449,18.688 -23.307,34.694l3.179,16.191c3.142,16.006 18.688,26.449 34.694,23.307l474.307,-93.112c16.006,-3.142 26.449,-18.688 23.307,-34.694l-3.179,-16.191Z" style="fill:#ff5800;"/><path d="M1111.093,273.212l-580.895,105.58l36,198.068l580.895,-105.58l-36,-198.068Z" style="fill:#ff9239;"/><path d="M916.061,303.832c-30.683,-20.237 -69.013,-28.917 -107.893,-21.285c-38.88,7.633 -71.084,30.16 -91.839,60.494c-30.683,-20.237 -69.013,-28.917 -107.893,-21.285c-78.641,15.438 -129.954,91.819 -114.516,170.46c15.438,78.641 91.819,129.954 170.46,114.516c38.88,-7.633 71.084,-30.16 91.839,-60.494c30.683,20.237 69.013,28.917 107.893,21.285c38.88,-7.633 71.084,-30.16 91.839,-60.494c30.683,20.237 69.013,28.917 107.893,21.285c78.641,-15.438 129.954,-91.819 114.516,-170.46c-15.438,-78.641 -91.819,-129.954 -170.46,-114.516c-38.88,7.633 -71.084,30.16 -91.839,60.494Zm-16.133,75.628c7.623,10.637 20.754,15.845 33.595,13.324c12.841,-2.521 23.029,-12.306 26.064,-25.036c6.907,-28.963 30.083,-52.732 61.185,-58.838c42.451,-8.334 83.682,19.365 92.015,61.816c8.334,42.451 -19.365,83.682 -61.816,92.015c-31.102,6.106 -61.544,-7.137 -78.888,-31.34c-7.623,-10.637 -20.754,-15.845 -33.595,-13.324c-12.841,2.521 -23.029,12.306 -26.064,25.036c-6.907,28.963 -30.083,52.732 -61.185,58.838c-31.102,6.106 -61.544,-7.137 -78.888,-31.34c-7.623,-10.637 -20.754,-15.845 -33.595,-13.324c-12.841,2.521 -23.029,12.306 -26.064,25.036c-6.907,28.963 -30.083,52.732 -61.185,58.838c-42.451,8.334 -83.682,-19.365 -92.015,-61.816c-8.334,-42.451 19.365,-83.682 61.816,-92.015c31.102,-6.106 61.544,7.137 78.888,31.34c7.623,10.637 20.754,15.845 33.595,13.324c12.841,-2.521 23.029,-12.306 26.064,-25.036c6.907,-28.963 30.083,-52.732 61.185,-58.838c31.102,-6.106 61.544,7.137 78.888,31.34Z" style="fill:#ff5800;"/></svg>